<svg width="64" height="64" viewBox="0 0 64 64" fill="none" xmlns="http://www.w3.org/2000/svg">
<circle cx="32" cy="32" r="32" fill="url(#paint0_radial_547_18747)"/>
<path fill-rule="evenodd" clip-rule="evenodd" d="M34.6133 8.00018C42.072 8.04209 47.2884 15.0751 51.0213 21.5326C54.0368 26.7491 53.5532 32.7615 52.3387 38.6632C51.0763 44.7976 49.7567 51.639 44.2222 54.5707C38.5216 57.5904 31.8188 55.2822 25.9276 52.6534C19.7374 49.8912 13.0566 46.4885 11.3871 39.9187C9.68523 33.2211 13.9065 26.9345 17.9724 21.3469C22.3742 15.2978 27.1323 7.95814 34.6133 8.00018Z" fill="url(#paint1_radial_547_18747)"/>
<path d="M23.0657 46V19.4L28.2717 18.526V27.798C29.8423 26.5567 31.6917 25.936 33.8197 25.936C35.6943 25.936 37.3917 26.392 38.9117 27.304C40.4317 28.216 41.635 29.4447 42.5217 30.99C43.4337 32.51 43.8897 34.22 43.8897 36.12C43.8897 38.02 43.4337 39.7427 42.5217 41.288C41.6097 42.808 40.381 44.024 38.8357 44.936C37.2903 45.8227 35.5677 46.266 33.6677 46.266C32.6797 46.266 31.717 46.1267 30.7797 45.848C29.8423 45.5693 28.981 45.164 28.1957 44.632V46H23.0657ZM32.9837 41.858C34.073 41.858 35.0483 41.6047 35.9097 41.098C36.7963 40.5913 37.493 39.9073 37.9997 39.046C38.5063 38.1847 38.7597 37.2093 38.7597 36.12C38.7597 35.0307 38.5063 34.0553 37.9997 33.194C37.493 32.3073 36.7963 31.6233 35.9097 31.142C35.0483 30.6353 34.073 30.382 32.9837 30.382C32.021 30.382 31.1343 30.5467 30.3237 30.876C29.5383 31.18 28.8543 31.6487 28.2717 32.282V39.996C28.829 40.5787 29.513 41.0347 30.3237 41.364C31.1597 41.6933 32.0463 41.858 32.9837 41.858Z" fill="white"/>
<defs>
<radialGradient id="paint0_radial_547_18747" cx="0" cy="0" r="1" gradientUnits="userSpaceOnUse" gradientTransform="translate(32 32) rotate(142.125) scale(45.607)">
<stop stop-color="#8B5CF6"/>
<stop offset="1" stop-color="#7E22CE"/>
</radialGradient>
<radialGradient id="paint1_radial_547_18747" cx="0" cy="0" r="1" gradientUnits="userSpaceOnUse" gradientTransform="translate(32.141 32) rotate(129.115) scale(33.5103 29.5184)">
<stop stop-color="#C084FC"/>
<stop offset="1" stop-color="#C4C4C4" stop-opacity="0"/>
<stop offset="1" stop-color="#8B5CF6"/>
</radialGradient>
</defs>
</svg>
